<svg width="354" height="175" viewBox="0 0 354 175" fill="none" xmlns="http://www.w3.org/2000/svg">
<circle cx="63.6585" cy="63.6586" r="39.7276" fill="#FFFA69" stroke="#FFFA69" stroke-width="3"/>
<circle cx="63.6587" cy="63.6586" r="50.7417" stroke="#FFFA69" stroke-width="3"/>
<circle cx="63.5" cy="63.5" r="62" stroke="#FFFA69" stroke-width="3"/>
<path d="M2.75511 141.178C-6.53072 173.678 38.7551 173.678 38.7551 173.678H295.749C295.749 173.678 352.749 173.678 352.749 123.678C352.749 68.1782 326.249 56.6782 326.249 56.6782C326.249 56.6782 329.749 21.4559 279.749 13.6781C229.749 5.90041 218.249 39.1781 218.249 39.1781C218.249 39.1781 203.249 19.6782 166.249 28.6781C129.249 37.6781 121.249 69.6781 121.249 69.6781C121.249 69.6781 89.749 56.6782 61.749 69.6781C33.749 82.6781 31.7488 113.178 31.7488 113.178C31.7488 113.178 12.0409 108.678 2.75511 141.178Z" fill="#B9D4D8" stroke="#F7FF00"/>
</svg>
