<svg width="100" height="394" viewBox="0 0 100 394" fill="none" xmlns="http://www.w3.org/2000/svg">
<g filter="url(#filter0_df_28_47)">
<path d="M9.03731 103.05C7.67107 66.8159 44.0373 17.0501 44.0373 17.0501C44.0373 17.0501 48.6062 52.1528 57.0374 66.5501C61.2457 73.7365 66.6127 79.4908 71.8066 85.0597C80.239 94.1008 88.2153 102.653 90.0374 116.05C92.9817 137.699 68.4998 180.05 68.4998 180.05H59.4998H50.4998H43.9998C43.9998 180.05 10.2886 136.235 9.03731 103.05Z" stroke="#FFFA69" stroke-width="10" shape-rendering="crispEdges"/>
</g>
<path d="M19.4998 190.05C19.4998 184.527 23.9769 180.05 29.4998 180.05H80.0374C85.5602 180.05 90.0374 184.527 90.0374 190.05V393.05H19.4998V190.05Z" fill="#EED87D"/>
<path fill-rule="evenodd" clip-rule="evenodd" d="M44.0373 17.0501C44.0373 17.0501 7.67107 66.8159 9.03731 103.05C10.2886 136.235 43.9998 180.05 43.9998 180.05H50.4998C50.4998 180.05 38.0374 154.55 34.5374 133.55C33.3457 126.4 44.0373 116.05 44.0373 116.05C44.0373 116.05 62.8728 123.536 61.5374 132.55C59.5374 146.05 59.4998 180.05 59.4998 180.05H68.4998C68.4998 180.05 92.9817 137.699 90.0374 116.05C88.2153 102.653 80.239 94.1008 71.8066 85.0597C66.6127 79.4908 61.2457 73.7365 57.0374 66.5501C48.6062 52.1528 44.0373 17.0501 44.0373 17.0501Z" fill="#FAFF5B"/>
<path d="M34.5374 133.55C38.0374 154.55 50.4998 180.05 50.4998 180.05H59.4998C59.4998 180.05 59.5374 146.05 61.5374 132.55C62.8728 123.536 44.0373 116.05 44.0373 116.05C44.0373 116.05 33.3457 126.4 34.5374 133.55Z" fill="#8696FF"/>
<path d="M50.4998 180.05H43.9998C43.9998 180.05 10.2886 136.235 9.03731 103.05C7.67107 66.8159 44.0373 17.0501 44.0373 17.0501C44.0373 17.0501 48.6062 52.1528 57.0374 66.5501C61.2457 73.7365 66.6127 79.4908 71.8066 85.0597C80.239 94.1008 88.2153 102.653 90.0374 116.05C92.9817 137.699 68.4998 180.05 68.4998 180.05H59.4998M50.4998 180.05C50.4998 180.05 38.0374 154.55 34.5374 133.55C33.3457 126.4 44.0373 116.05 44.0373 116.05C44.0373 116.05 62.8728 123.536 61.5374 132.55C59.5374 146.05 59.4998 180.05 59.4998 180.05M50.4998 180.05H59.4998M90.0374 393.05V190.05C90.0374 184.527 85.5602 180.05 80.0374 180.05H29.4998C23.9769 180.05 19.4998 184.527 19.4998 190.05V393.05H90.0374Z" stroke="#FFFA69"/>
<defs>
<filter id="filter0_df_28_47" x="0" y="0" width="99.2827" height="191.05" filterUnits="userSpaceOnUse" color-interpolation-filters="sRGB">
<feFlood flood-opacity="0" result="BackgroundImageFix"/>
<feColorMatrix in="SourceAlpha" type="matrix" values="0 0 0 0 0 0 0 0 0 0 0 0 0 0 0 0 0 0 127 0" result="hardAlpha"/>
<feOffset dy="3"/>
<feGaussianBlur stdDeviation="1.5"/>
<feComposite in2="hardAlpha" operator="out"/>
<feColorMatrix type="matrix" values="0 0 0 0 0.966667 0 0 0 0 1 0 0 0 0 0 0 0 0 1 0"/>
<feBlend mode="normal" in2="BackgroundImageFix" result="effect1_dropShadow_28_47"/>
<feBlend mode="normal" in="SourceGraphic" in2="effect1_dropShadow_28_47" result="shape"/>
<feGaussianBlur stdDeviation="2" result="effect2_foregroundBlur_28_47"/>
</filter>
</defs>
</svg>
