<svg width="139" height="192" viewBox="0 0 139 192" fill="none" xmlns="http://www.w3.org/2000/svg">
<path fill-rule="evenodd" clip-rule="evenodd" d="M91.1617 54.5208C94.8141 57.4802 98.4005 60.7395 101.03 63.9134C109.715 74.3973 112.451 82.0704 117.02 94.8869L117.03 94.9134C123.466 112.966 126.363 124.336 124.53 143.413C122.639 163.092 107.03 190.913 107.03 190.913H124.53C124.53 190.913 136.842 155.497 137.53 131.913C137.551 131.176 137.573 130.444 137.595 129.715C138.508 98.7838 139.184 75.8987 119.03 51.9134C109.081 40.0733 87.5299 27.9134 87.5299 27.9134C87.5299 27.9134 91.6819 43.5555 91.1617 54.5208Z" fill="#FFC65B"/>
<path d="M69.5299 190.913H107.03C107.03 190.913 122.639 163.092 124.53 143.413C126.363 124.336 123.466 112.966 117.03 94.9134L117.02 94.8869C112.451 82.0704 109.715 74.3973 101.03 63.9134C98.4005 60.7395 94.8141 57.4802 91.1617 54.5208C83.4913 48.3057 75.5299 43.4134 75.5299 43.4134C84.8695 60.5322 92.4338 94.8372 94.0298 104.413C95.5298 113.413 92.1756 129.889 89.4254 139.913C84.5212 157.79 77.5386 177.779 69.5299 190.913Z" fill="#F9FE7F"/>
<path d="M52.0299 20.4134C52.0299 20.4134 59.0299 14.9134 59.5299 11.4134C60.1926 6.7742 57.0299 0.913391 57.0299 0.913391C57.0299 0.913391 53.0062 6.10578 52.0299 9.91339C51.0536 13.721 52.0299 20.4134 52.0299 20.4134Z" fill="#F9FF57"/>
<path d="M75.5299 12.9134C75.5299 12.9134 68.92 18.4002 69.5299 22.9134C70.0322 26.6305 75.5299 30.4134 75.5299 30.4134C75.5299 30.4134 79.5299 25.4134 79.5299 21.9134C79.5299 17.7759 75.5299 12.9134 75.5299 12.9134Z" fill="#F9FF57"/>
<path d="M62.0675 38.4134C62.0675 38.4134 57.3287 45.2162 58.0675 49.9134C58.7238 54.0863 64.0675 58.9134 64.0675 58.9134C64.0675 58.9134 68.2962 52.0509 67.5675 47.4134C66.9281 43.3443 62.0675 38.4134 62.0675 38.4134Z" fill="#F9FF57"/>
<path d="M45.0674 27.9134C45.0674 27.9134 -0.836459 80.6792 0.529785 116.913C1.78107 150.099 45.0299 190.913 45.0299 190.913H51.5299H60.5299C60.5299 190.913 52.7761 163.106 52.0299 139.913C51.6228 127.261 45.3411 118.621 39.6055 109.913C35.5524 103.76 31.772 97.5735 30.5298 89.9134C27.5298 71.4134 45.0674 27.9134 45.0674 27.9134Z" fill="#F9FF57"/>
<path d="M60.5299 190.913H69.5299C69.5299 190.913 80.891 160.524 72.0298 131.913C70.4263 126.736 67.4103 121.438 64.0675 116.191C59.8473 109.567 55.1064 103.025 52.0299 96.9134C47.6696 88.2515 50.5298 42.4134 50.5298 42.4134C50.5298 42.4134 34.699 76.9035 34.5298 85.4134C34.3376 95.0807 39.6055 109.913 39.6055 109.913C45.3411 118.621 51.6228 127.261 52.0299 139.913C52.7761 163.106 60.5299 190.913 60.5299 190.913Z" fill="#FFB957"/>
<path d="M72.0298 131.913C80.891 160.524 69.5299 190.913 69.5299 190.913C77.5386 177.779 84.5212 157.79 89.4254 139.913C89.4254 139.913 79.0299 127.715 77.0298 111.413C75.9208 102.374 79.5299 77.4134 79.5299 77.4134L64.0675 116.191C67.4103 121.438 70.4263 126.736 72.0298 131.913Z" fill="#FFCF54"/>
<path d="M69.5299 190.913H60.5299M69.5299 190.913H107.03M39.6055 109.913C39.6055 109.913 34.3376 95.0807 34.5298 85.4134C34.699 76.9035 50.5298 42.4134 50.5298 42.4134C50.5298 42.4134 47.6696 88.2515 52.0299 96.9134C55.1064 103.025 59.8473 109.567 64.0675 116.191C67.4103 121.438 70.4263 126.736 72.0298 131.913C80.891 160.524 69.5299 190.913 69.5299 190.913M69.5299 190.913C77.5386 177.779 84.5212 157.79 89.4254 139.913M39.6055 109.913C45.3411 118.621 51.6228 127.261 52.0299 139.913C52.7761 163.106 60.5299 190.913 60.5299 190.913H51.5299H45.0299C45.0299 190.913 1.78107 150.099 0.529785 116.913C-0.836459 80.6792 45.0674 27.9134 45.0674 27.9134C45.0674 27.9134 27.5298 71.4134 30.5298 89.9134C31.772 97.5735 35.5524 103.76 39.6055 109.913ZM117.03 94.9134C123.466 112.966 126.363 124.336 124.53 143.413C122.639 163.092 107.03 190.913 107.03 190.913M117.03 94.9134L117.02 94.8869M91.1617 54.5208C94.8141 57.4802 98.4005 60.7395 101.03 63.9134C109.715 74.3973 112.451 82.0704 117.02 94.8869C117.024 94.8957 117.027 94.9046 117.03 94.9134M107.03 190.913H124.53C124.53 190.913 136.842 155.497 137.53 131.913C137.551 131.176 137.573 130.444 137.595 129.715C138.508 98.7838 139.184 75.8987 119.03 51.9134C109.081 40.0733 87.5299 27.9134 87.5299 27.9134C87.5299 27.9134 91.6819 43.5555 91.1617 54.5208M91.1617 54.5208C83.4913 48.3057 75.5299 43.4134 75.5299 43.4134C84.8695 60.5322 92.4338 94.8372 94.0298 104.413C95.5298 113.413 92.1756 129.889 89.4254 139.913M64.0675 116.191L79.5299 77.4134C79.5299 77.4134 75.9208 102.374 77.0298 111.413C79.0299 127.715 89.4254 139.913 89.4254 139.913M57.0299 0.913391C57.0299 0.913391 60.1926 6.7742 59.5299 11.4134C59.0299 14.9134 52.0299 20.4134 52.0299 20.4134C52.0299 20.4134 51.0536 13.721 52.0299 9.91339C53.0062 6.10578 57.0299 0.913391 57.0299 0.913391ZM75.5299 12.9134C75.5299 12.9134 68.92 18.4002 69.5299 22.9134C70.0322 26.6305 75.5299 30.4134 75.5299 30.4134C75.5299 30.4134 79.5299 25.4134 79.5299 21.9134C79.5299 17.7759 75.5299 12.9134 75.5299 12.9134ZM62.0675 38.4134C62.0675 38.4134 57.3287 45.2162 58.0675 49.9134C58.7238 54.0863 64.0675 58.9134 64.0675 58.9134C64.0675 58.9134 68.2962 52.0509 67.5675 47.4134C66.9281 43.3443 62.0675 38.4134 62.0675 38.4134Z" stroke="#FFFA69"/>
</svg>
