<svg width="265" height="404" viewBox="0 0 265 404" fill="none" xmlns="http://www.w3.org/2000/svg">
<g filter="url(#filter0_df_27_16)">
<path d="M75.7734 298.234H186.214C190.5 298.234 190.55 287.126 192 283C194.9 274.747 198.798 264.852 206.742 248.326C209.046 243.533 213.461 238.057 218.858 231.202C224.239 224.368 230.554 216.213 236.576 206.119C248.628 185.92 259.5 157.981 259.5 117.28C259.5 76.5169 242.48 48.5464 217.879 30.7832C193.299 13.0355 161.186 5.50002 130.994 5.5C100.797 5.5 69.4345 13.4137 45.6074 31.3525C21.7613 49.3059 5.50001 77.2752 5.5 117.28C5.5 157.219 15.097 184.771 25.7539 204.963C31.0794 215.053 36.6677 223.301 41.4375 230.321C46.2195 237.359 50.2228 242.168 53 247C61.0458 261 66.8548 274.345 71 283C72.7792 286.715 72.5 298.234 75.7734 298.234Z" stroke="#F7FF00" stroke-width="3" shape-rendering="crispEdges"/>
</g>
<path fill-rule="evenodd" clip-rule="evenodd" d="M75.2737 403H186.714V381.947V353.375V321.795V297.735H158.854H130.994H103.134H75.2737V335.33V369.165V403Z" fill="#CCE0E2"/>
<path d="M186.714 297.735C186.714 297.735 190.389 281.193 206.292 248.11C215.628 228.687 259 198.485 259 117.28C259 36.0758 191.232 6 130.994 6C70.756 6 6 37.5795 6 117.28C6 196.981 42.5403 228.389 53.5 248.11C69 276 75.2737 297.735 75.2737 297.735H103.134H130.994H158.854H186.714Z" fill="#FFFA5B"/>
<path d="M75.2737 297.735V335.33M75.2737 297.735C75.2737 297.735 69 276 53.5 248.11C42.5403 228.389 6 196.981 6 117.28C6 37.5795 70.756 6 130.994 6C191.232 6 259 36.0758 259 117.28C259 198.485 215.628 228.687 206.292 248.11C190.389 281.193 186.714 297.735 186.714 297.735M75.2737 297.735H103.134M75.2737 369.165V403H186.714V381.947M75.2737 403L186.714 381.947M186.714 297.735V321.795M186.714 297.735H158.854M75.2737 335.33L186.714 321.795M75.2737 335.33V369.165M186.714 321.795V353.375M75.2737 369.165L186.714 353.375M186.714 353.375V381.947M103.134 297.735H130.994H158.854M103.134 297.735C103.134 297.735 81.2976 201.492 81.2976 178.936C81.2976 135.478 176.173 135.478 176.173 178.936C176.173 199.989 158.854 297.735 158.854 297.735" stroke="#939393"/>
<defs>
<filter id="filter0_df_27_16" x="0" y="0" width="265" height="305.734" filterUnits="userSpaceOnUse" color-interpolation-filters="sRGB">
<feFlood flood-opacity="0" result="BackgroundImageFix"/>
<feColorMatrix in="SourceAlpha" type="matrix" values="0 0 0 0 0 0 0 0 0 0 0 0 0 0 0 0 0 0 127 0" result="hardAlpha"/>
<feOffset dy="3"/>
<feGaussianBlur stdDeviation="1.5"/>
<feComposite in2="hardAlpha" operator="out"/>
<feColorMatrix type="matrix" values="0 0 0 0 0.966667 0 0 0 0 1 0 0 0 0 0 0 0 0 1 0"/>
<feBlend mode="normal" in2="BackgroundImageFix" result="effect1_dropShadow_27_16"/>
<feBlend mode="normal" in="SourceGraphic" in2="effect1_dropShadow_27_16" result="shape"/>
<feGaussianBlur stdDeviation="2" result="effect2_foregroundBlur_27_16"/>
</filter>
</defs>
</svg>
